<?xml version="1.0" encoding="utf-8"?>

<!DOCTYPE svg PUBLIC "-//W3C//DTD SVG 1.1//EN" "http://www.w3.org/Graphics/SVG/1.1/DTD/svg11.dtd">
<svg version="1.1" id="Layer_1" xmlns="http://www.w3.org/2000/svg" xmlns:xlink="http://www.w3.org/1999/xlink" x="0px" y="0px"
	 viewBox="0 0 558.976 1775.228" enable-background="new 0 0 558.976 1775.228" xml:space="preserve">
<path d="M246.864,88.159c2.288-0.624,4.666-0.537,7.014-0.544c1.175,0.513,2.56,0.893,3.798,0.359
	c1.008,0.582,2.208,0.234,3.306,0.244c-0.014,0.188-0.042,0.568-0.056,0.76c2.954-0.844,2.523-1.265,4.942,0.119
	c0.028-0.248,0.08-0.746,0.105-0.997c0.788,0.603,1.468,1.357,2.368,1.807c0-0.199,0.007-0.603,0.01-0.802
	c0.133,0.359,0.269,0.722,0.412,1.081l0.586-0.251c0.038-0.206,0.108-0.614,0.146-0.816c0.192,0.743,0.966,1.008,1.503,1.468
	c0.258,0.527,0.007,1.116-0.038,1.66c0.439-0.073,0.882-0.143,1.329-0.216c0.08,0.22,0.237,0.656,0.317,0.875
	c0.851-0.303,1.761-0.223,2.56,0.195c5.111-0.379,6.88,2.411,7.924,3.01c2.166,1.533,3.854-0.715,6.986,5.87
	c0.513,0.886,1.545,1.304,2.494,1.555c-0.579,0.01-1.325-0.021-1.482,0.691c1.357,0.45,2.692,1.071,3.739,2.072
	c-0.283,0.303-0.565,0.607-0.841,0.91c0.9,1.179,2.26,1.883,3.313,2.919c1.925,0.785,3.641,1.932,5.361,3.076
	c0.049,0.216,0.139,0.649,0.185,0.865c0.202,0.028,0.61,0.091,0.813,0.119c0.624,1.029,1.364,1.984,2.124,2.916
	c0.269,1.067,0.914,1.967,1.517,2.87c-0.084,0.312,1.681,4.838,1.803,5.137c0.635-0.206,0.896-0.865,1.27-1.357
	c0.255,1.939-0.171,3.934,0.425,5.828c0.283,1.304,1.357,2.33,1.381,3.707c0.188,0.143,0.568,0.432,0.757,0.575
	c-0.122,0.133-0.37,0.391-0.492,0.52c0.673,0.984,1.339,1.981,1.841,3.069c-0.195,0.984,0.432,1.803,0.704,2.699
	c1.207,3.788,1.667,7.931,0.544,11.795c0.997-0.164,1.66-1.001,2.354-1.657c0.004-0.167,0.004-0.506,0.004-0.677l0.282,0.017
	c0.757-0.966,1.029-2.152,1.444-3.275c0.042,0.377,0.084,0.75,0.122,1.13c-0.31,0.548-0.555,1.133-0.687,1.751
	c-1.493,2.462-3.76,4.412-4.848,7.118c-0.405,1.555-1.025,3.059-1.862,4.429c-0.276,0.523-0.6,1.123-0.464,1.73
	c0.837,1,8.658,6.102,10.585,11.045c2.621,2.049,3.503,5.218,6.825,9.535c0.045,0.188,0.14,0.568,0.185,0.757
	c0.845,1.03,10.382,20.231,11.837,25.244c3.72,11.26,6.06,51.081,6.25,52.081c-0.23,1.032,0.017,2.138-0.258,3.146
	c-1.126,0.366,0.112,1.744-0.868,2.169c-0.146-0.425-0.289-0.847-0.527-1.221c-0.251,0.52-0.471,1.053-0.715,1.576
	c-0.813,0.063-0.882,0.854-0.956,1.486c-0.164,0.119-0.492,0.356-0.656,0.474c-0.024,0.223-0.073,0.663-0.101,0.886
	c0.279,0,0.83,0.003,1.109,0.003c-0.007,1.385,0.024,2.773-0.014,4.157c0.178,0.01,0.534,0.024,0.712,0.031
	c0,0.412,0.003,0.827,0.014,1.242c0.663,1.151,1.151,2.4,1.939,3.481c0.139,0.879,0.551,1.716,1.409,2.086
	c0.258,1.078,0.677,2.288,1.779,2.769c0.288,1.942,2.107,3.554,12.12,20.553c4.007,6.904,17.087,36.922,33.122,48.147
	c65.79,43.925,61.156,111.467,62.955,120.39c1.695,1.587,2.448,4.29,1.339,6.414c0.406,1,2.071,9.115,2.152,9.72
	c0.645,0.377,1.58,0.635,1.674,1.521c0.45,1.015-0.736,1.646-0.893,2.56c15.688,81.862,26.775,194.298,23.58,204.222
	c-3.405,12.71-18.386,19.91-30.241,32.941c-6.695,6.925-30.141,28.711-31.141,29.617c0,0.195-0.003,0.582-0.003,0.778
	c16.678,15.243,29.223,25.263,40.408,87.658c2.341,13.373,0.648,17.529,0.854,19.583c5.08,53.326-32.147,89.358-32.805,90.358
	c-6.999,30.483,10.239,64.808,5.64,124.421c-2.738,82.441,8.247,100.072,5.517,134.229c-0.971,7.89,6.93,21.974,10.498,32.662
	c4.294,12.025,4.197,18.899,7.83,30.328c16.245,63.94,9.318,63.502,2.647,130.968c-12.93,98.667-24.836,112.961-9.636,175.958
	c1.838,8.762,14.111,30.263-5.113,46.291c-5.872,3.961-13.145,4.076-19.897,1.322c-12.531-4.132-59.319-5.727-65.194-4.196
	c-1.458-0.045-9.3,0.843-11.534,0.795c-1.544,0.381-10.508,0.605-11.509,0.635c-17.68,0.062-8.701,0.164-15.632,0.858
	c-4.006,0.526-22.218,12.47-23.549,14.61c-8.873,15.418-7.13,27.35-32.498,39.839c-6.652,2.527-17.583-0.569-24.891-2.176
	c-3.401-0.937-19.518-3.484-21.309-3.864c-3.418-0.384-6.142-2.738-9.41-3.592c-2.741-0.98-8.004-1.007-8.911-8.754
	c0.429-1.249,1.789-2.016,1.964-3.397c0.739-2.378-0.746-4.659-0.53-7.035c2.591-2.243,5.912-3.449,9.197-4.272
	c9.397-3.36,13.813-7.605,22.551-11.872c5.681-3.049,3.997-3.093,7.631-5.674c4.057-3.173-4.301-14.201,1.064-19.185
	c0.014-5.719,2.751-5.605,4.809-7.687c0.048-0.086,3.007-32.139,3.017-32.236c4.345-35.215-42.099-113.078-146.725-285.669
	c-3.536-5.688-6.839-11.645-11.635-16.395c-6.876-7.297-8.105-14.239-14.327-21.826c-7.809-10.042-11.001-26.198-11.617-32.167
	c-1.441-12.665,2.84-23.176,9.483-45.343c6.788-20.953,18.296-40.401,18.296-40.401c0.889-1.343,1.433-2.877,2.382-4.178
	c0.425-1.632,1.531-2.926,2.134-4.471c0.506-0.628,0.809-1.371,1.004-2.131c0.716-1.051,5.434-9.813,5.901-11.572
	c0.126-0.125,0.384-0.38,0.509-0.506c1.057-4.079,17.284-30.448,18.097-31.448c0.052-0.188,0.16-0.562,0.216-0.75
	c2.336-3.08,23.838-38.999,23.838-38.999c0.679-1.549,12.909-19.815,14.519-22.823c0.126-0.122,0.373-0.366,0.499-0.492
	c0.294-1,38.378-63.381,50.456-69.711c1.905-2.774,21.637-22.324,28.55-36.676c-3.055-3.048-6.075-6.17-9.493-8.81
	c-12.572-5.103-8.824-8.176-11.307-12.472c-0.296,0.049-0.886,0.146-1.182,0.195c0.126,0.401,0.255,0.806,0.394,1.224
	c-4.156-2.471-15.898,1.195-14.209-10.187c-0.725,0.091-1.444,0.241-2.173,0.289c-3.977-1.599-16.241-2.671-14.149-12.029
	c-42.752-25.47-61.756-61.078-62.907-94.096c-0.659-7.659-0.349-15.349-0.293-23.025c3.311-61.747,12.732-72.567,23.971-102.292
	c-0.059-0.206-0.174-0.614-0.23-0.82c-1.273,0.014-2.56,0.607-3.795,0.031c-14.019-2.001-13.499-13.567-14.191-16.873
	c-0.589-2.134-1.876-4.049-2.127-6.278c-0.738-8.92,1.046-8.384-0.575-12.542c-3.629-9.284,3.42-12.202,3.983-15.858
	c2.548-15.745,4.052-13.624,16.646-16.58c0.894-0.242,7.243-7.635,9.703-8.161c-0.307-2.295-1.137-4.541-0.83-6.885
	c1.48-1.604-0.323-4.52,2.319-6.822c-3.35-1.629-22.936-33.439,9.431-74.064c20.072-24.973,46.07-33.51,68.55-57.609
	c10.966-12.736,45.489-41.241,47.073-41.789c0.76-6.477-0.848-13.051-3.491-18.945c-1.297,0.276-2.002,1.514-2.87,2.396
	c-1.709,2.247-11.989,11.423-14.554,13.34c-22.427,16.676-24.091-15.777-34.353-8.935c-0.921,0.555-1.817,1.27-2.958,1.175
	c-6.602-5.981-2.944-3.351-5.817-7.621c-0.195,0.126-0.586,0.377-0.781,0.506c-0.105-0.209-0.317-0.621-0.422-0.827
	c-6.684,2.421-8.615-1.507-10.1-2.832c-0.813-4.436-5.877-7.202-10.104-5.929c-2.225,0.959-3.899,2.87-6.187,3.718
	c-14.021,5.04-12.712-14.473-13.18-17.177c-0.586-4.433-2.403-8.573-3.205-12.957c-3.131-11.159-1.569-25.202-14.7-25.359
	c-7.043-2.336-2.741-5.485-5.953-9.061c0.22-1.399-0.248-2.787-1.311-3.725c-0.035-0.352-0.07-0.705-0.105-1.053
	c-0.625-1.371-1.716-4.172-1.747-6.121c-0.962-2.208-0.662-3.042-3.721-6.4c0-0.001-3.31-8.234-3.31-8.234
	c-0.157,0.004-0.474,0.007-0.635,0.01c0.01-0.258,0.035-0.771,0.045-1.029c-0.174-0.007-0.53-0.021-0.704-0.028
	c-0.003-0.429-0.003-0.851-0.003-1.273c-1.064-0.112-0.977-1.263-1.099-2.051c-0.523-0.603-0.691-1.378-0.76-2.148
	c-0.129-0.139-0.387-0.419-0.516-0.561c-0.279-1.451-0.52-2.992-1.36-4.241c-0.109-1-2.057-8.844-2.776-9.657
	c-0.192-0.708-0.464-1.406-1.099-1.821c-0.303-1.803-0.861-3.575-1.608-5.235c-0.098-0.035-0.293-0.108-0.391-0.143
	c0.237-0.035,0.711-0.108,0.949-0.143c-0.185-0.276-0.551-0.823-0.736-1.099c-0.115-0.544-0.279-1.088-0.711-1.468
	c0.01-0.871-0.209-5.594-0.729-9.912c0.321-4.005,4.75-19.235,4.918-20.235c1.145-7.786,5.177-9.78,8.611-19.053
	c33.437-41.31,43.619-40.583,48.046-45.371l-0.82-0.122c0.307-0.031,0.614-0.063,0.924-0.087c0.003-1.011,1.182-1.252,1.964-1.402
	c-0.398-0.987-1.179-1.744-1.667-2.678c0.541-1.029,1.371-1.946,1.528-3.139c0.136-0.792,0.471-1.528,0.827-2.243
	c0.335-0.167,0.656-0.359,0.959-0.582c0.087-0.673-0.541-1.154-0.858-1.674c0.045-1.078,0.199-2.253,1.071-2.992
	c0.548-0.366,0.562-1.147-0.164-1.273c0.167-0.035,0.506-0.105,0.673-0.136c0.241-0.265,0.485-0.527,0.732-0.788
	c0.523-1.671,1.911-3.055,3.645-3.425c0.014-0.16,0.035-0.485,0.045-0.649c-0.377-0.237-0.753-0.471-1.123-0.711
	c0.502-0.582,1.147-0.834,1.908-0.614c-0.049-0.412-0.091-0.823-0.129-1.235c-0.199,0.003-0.596,0.014-0.795,0.017
	c0.53-0.715,1.423-0.896,2.201-1.214c0.056-0.349,0.038-0.698-0.045-1.046c0.555-0.084,1.088-0.265,1.583-0.534
	c-1.517-1.35-0.698-3.547-0.16-5.172c0.98-0.994,2.239-1.674,3.453-2.351c0.617-1.256-0.014-2.867,1.025-3.91
	c0.052-0.6,0.098-1.203,0.146-1.803c2.421-3.006,1.75-1.371,4.342-1.981C224.77,103.652,240.686,89.134,246.864,88.159
	 M398.695,632.621c-0.875,1.653-1.095,3.585-2.051,5.214c-0.61,1.287-1.81,2.141-2.549,3.345
	c-7.125,11.37-3.422,10.475-6.086,15.635c-4.142,7.622-6.328,20.084-2.33,29.359c0.781,1.548,2.623,1.548,4.06,2.047
	c2.56-2.159,4.077-5.242,6.473-7.565c0.559-0.726,9.559-10.138,10.017-10.648c0.181-1.322,0.562-2.605,0.99-3.864
	c-0.31-3.111,0.938-6.138,0.621-9.253c-0.677-7.367-5.884-16.387-7.24-22.708C400.47,633.28,399.741,632.164,398.695,632.621
	 M309.105,1100.683c-51.476,48.996-112.101,79.659-119.633,118.231c-0.68,3.749-0.488,7.593-1.203,11.345
	c-0.471,1.667,0.684,3.125,1.423,4.516c18.031,28.996,17.033,19.219,44.171,52.049c24.204,31.299,17.681,50.664,40.139,113.704
	c0.639,2.03,15.611,44.984,18.896,57.836c9.332,36.138,8.748,35.11,17.878,48.75c14.198,22.041,26.208,17.269,37.925,29.003
	c2.902,3.608,13.42,12.214,7.324,25.488c-1.625,3.54-2.665,7.617-5.762,10.233c-1.294,1.102-1.768,2.825-2.964,4.018
	c-0.954,1.002-4.995,5.504-5.284,7.676c0.935-0.028,1.876-0.161,2.724-0.575c26.477-13.444,24.623-13.343,31.891-28.644
	c24.039-49.691,1.953-178.655-5.877-244.386c-3.369-28.39-0.62-33.274-5.786-43.627c-0.692-1.331-10.097-16.481-15.687-29.98
	c-15.805-33.376-12.858-38.151-14.899-46.41c-0.569-7.92-4.307-15.101-6.058-22.764c-1.193-4.681-1.102-9.542-1.719-14.303
	c-0.098-1.001-2.67-21.893-15.37-53.399C310.325,1099.389,309.736,1100.153,309.105,1100.683z"/>
</svg>
