<?xml version="1.0" encoding="utf-8"?>

<!DOCTYPE svg PUBLIC "-//W3C//DTD SVG 1.1//EN" "http://www.w3.org/Graphics/SVG/1.1/DTD/svg11.dtd">
<svg version="1.1" id="Layer_1" xmlns="http://www.w3.org/2000/svg" xmlns:xlink="http://www.w3.org/1999/xlink" x="0px" y="0px"
	 viewBox="0 0 920 1676.4849" enable-background="new 0 0 920 1676.4849" xml:space="preserve">
<path d="M896.5685,161.3631c0.9791-11.1821,3.8822-22.3254,1.5763-33.5792c-1.1412-5.5687-1.4333-11.882-7.3583-15.2797
	c-5.7545-3.3003-10.2238-8.8339-17.1666-10.0491c-4.3588-0.7628-5.9844-6.1775-10.7439-6.1455
	c-12.2788,0.0823-24.5118,0.2483-36.6346-2.6439c-10.5835-2.525-15.2469,2.5189-14.7776,14.3409
	c0.053,1.3347,0.1227,2.6089-1.5062,2.9983c-3.2561,0.7778-5.8748,2.9429-9.4342,3.3982
	c-5.3894,0.6892-9.6276,8.9412-7.3083,13.9058c3.3312,7.1313,6.5543,14.3784,11.3046,20.7437
	c7.3754,9.8826,16.7249,17.8993,26.3862,25.2454c10.0044,7.6072,10.9033,17.7131,10.6199,28.5164
	c-0.3472,13.2485-3.0461,26.1929-5.6941,39.1472c-3.6172,17.6951-6.0298,35.6506-11.7048,52.8882
	c-6.0505,18.3794-12.286,36.6843-19.0281,54.8354c-3.9904,10.743-10.4102,16.1802-21.8909,16.5791
	c-8.7363,0.3033-16.5188-3.9108-25.1086-4.2957c-2.3429-0.105-3.3982,2.0803-5.3667,1.3932
	c-4.5978-1.6046-9.1812-3.2534-13.7512-4.9355c-3.3296-1.2257-7.1653-1.6005-9.9236-0.0508
	c-4.9092,2.7579-9.6058,2.5371-14.1458,0.4384c-2.2955-1.061-4.2878-0.8868-5.9498-0.123
	c-5.4139,2.4886-10.5309,3.3762-15.7758-0.3223c-3.127-2.205-6.8794-1.5674-9.8677-0.332c-1.551,0.6412-2.0911,0.3658-3.3406,0.0149
	c-5.7574-1.6166-11.4502-3.1655-17.6155-3.2302c-6.5017-0.0681-12.9294-1.6807-16.5901-8.1254
	c-1.4724-2.5918-3.3235-4.0616-6.512-3.365c-0.9556,0.2086-1.9417,0.0909-3.1078-0.3929
	c-4.5948-1.9063-9.6255-3.2394-13.7131,0.7664c-2.1259,2.0835-3.4148,1.6741-5.1642,0.1414
	c-2.0869-1.8287-3.9519-2.087-5.7622,0.4443c-2.9412,4.113-6.5277,4.4059-11.3711,3.0653
	c-2.2109-0.6119-4.9121-2.5802-7.9521-0.7682c-5.1187,3.0508-11.6676,2.8546-16.5891,5.8811
	c-4.1973,2.5812-10.4797-0.5947-13.1118,5.2798c-0.0718,0.1604-1.2067,0.1023-1.6089-0.1853
	c-2.5115-1.7941-5.4048-0.9636-7.381,0.1328c-2.4896,1.3807-4.2726,1.8376-6.8446,0.4758
	c-4.9321-2.6113-9.1506-3.0712-13.3613,2.3447c-4.5287,5.8245-10.5955,5.4578-16.6658,0.4011
	c-5.2646-4.3854-5.5771-7.4686-1.0796-12.6638c7.1112-8.2136,11.8873-17.4081,13.7917-28.2805
	c0.599-3.4197-0.696-9.0464,3.9197-10.0635c6.2111-1.3683,9.0825-5.418,11.5366-10.3058
	c5.64-11.233,14.2233-21.7826,10.2612-35.6034c-1.3398-4.6731,1.2729-9.5975-1.2623-13.7333
	c-2.0221-3.2985-1.5448-6.0034-0.1805-9.1194c0.6804-1.5535,1.1335-3.2731,1.3335-4.9596
	c1.2061-10.1829,0.4471-20.2898-0.0186-30.525c-0.7653-16.8124-9.4973-30.5483-14.3423-45.7115
	c-2.691-8.4218-9.6073-14.9114-15.9072-20.9988c-8.2581-7.9792-18.5261-13.5264-27.8921-20.1721
	c-1.9705-1.3983-3.7415-1.3507-6.1614-1.0858c-4.3016,0.4708-8.5872,2.9547-13.2112,0.0184
	c-3.8054-2.4164-8.9805-0.5526-13.0112-2.8857c-5.2159-3.0188-11.0264-3.6898-16.3633-1.8667
	c-5.676,1.939-11.1963,2.6821-17.1218,2.9702c-7.1604,0.3479-13.1915,3.6748-19.0133,8.407
	c-10.6493,8.6567-23.8466,14.2324-30.8607,27.1543c-1.354,2.4943-4.5911,3.8884-6.4386,6.2052
	c-9.9148,12.4327-16.48,26.2678-18.0874,42.3619c-1.1066,11.0782-0.4926,22.2649-2.5306,33.283
	c-0.797,4.309-1.0613,8.9985,1.3315,12.8711c2.5023,4.0493,3.1929,6.9867-1.5884,9.7875c-1.3879,0.8132-1.9354,2.999-1.9155,5.0734
	c0.1819,19.0442,6.1323,35.9602,18.2495,50.7078c1.7672,2.1508,3.9095,3.1985,6.5464,3.0681
	c3.0685-0.1516,4.3459,1.604,4.774,4.1744c2.7261,16.3595,11.36,28.7465,25.0797,37.8275c5.7417,3.8004-2.2899,6.605-0.9098,10.2443
	c0.527,1.3895-1.114,1.7601-2.0624,2.1733c-0.4587,0.1998-1.1886-0.1002-1.7557-0.2926c-2.4216-0.8193-4.0409-2.5352-4.8097-4.906
	c-1.0012-3.0876-4.3916-5.1487-6.1299-4.5645c-6.1929,2.0813-6.6147-2.9575-8.7466-5.955c-2.3071-3.244-4.3733-6.9385-7.8658-8.8251
	c-5.3492-2.8894-10.9161-6.2216-16.7386-7.1266c-4.8214-0.7493-10.6462-1.6395-15.3428,2.9633
	c-1.9219,1.8832-4.374,5.2307-7.6057,4.4417c-4.7699-1.1644-9.3313-3.1349-13.4153-6.1973
	c-2.9443-2.2078-5.4055-5.9812-10.5896-2.4991c-2.46,1.6525-6.4924,1.326-8.9543,4.1368c-0.3583,0.4092-2.1907,0.3198-2.4323-0.083
	c-2.8212-4.7078-7.4054-1.4084-10.2581-1.1656c-4.2001,0.3571-9.0958,2.2257-12.6686,5.3658
	c-2.4044,2.1135-4.2719,2.1721-7.0676,0.6913c-3.2307-1.7113-7.2358-4.2374-10.3029-3.5839
	c-12.6815,2.7009-21.3822-5.5544-31.4188-10.1295c-3.8042-1.7341-8.4729-5.1737-11.6143-2.5649
	c-4.3423,3.606-8.0872,5.1307-12.6078,2.1207c-3.5469-2.3615-7.1801-0.3523-10.8622-1.4426
	c-6.4156-1.8999-12.7012-4.5083-19.6159-5.0525c-3.8124-0.2998-8.075-0.9407-11.5065-2.5713
	c-3.3985-1.6151-6.7205-3.3853-10.3187-4.5281c-10.9708-3.4844-19.0159-10.1907-23.4645-20.9705
	c-6.7579-16.3757-13.5906-32.7207-20.3098-49.1123c-5.5721-13.5935-11.0765-27.2152-16.517-40.8621
	c-4.5106-11.3145-7.5714-23.0592-10.5463-34.8615c-3.358-13.3217-7.269-26.5033-6.4506-40.4474
	c0.4113-7.0078,2.1114-12.9837,8.5071-17.7315c19.8669-14.7478,38.7515-30.6199,51.7145-52.3088
	c1.7662-2.9552,1.9801-5.8926,0.8329-8.5984c-0.7751-1.8285-2.7075-3.8499-5.1872-3.8398
	c-4.0145,0.0161-8.0375,0.3071-11.3951,3.0297c-2.5137,2.0382-4.0235,1.2948-4.6863-1.7859
	c-0.7858-3.6526-2.5427-6.2207-6.5402-7.3241c-2.7264-0.7527-5.6318-1.1666-8.1578-2.1284
	c-14.1789-5.3992-27.5304-0.0155-41.1083,2.5387c-0.816,0.1537-1.5502,0.7667-2.3105,1.1874
	c-5.8538,3.2401-7.6915,9.6758-11.2668,14.6526c-6.0621,8.4381-13.2161,16.2583-15.996,26.8208
	c-2.0792,7.9003-2.6204,16.0061-4.2802,23.9463c-2.4259,11.6055-3.7099,23.4382-1.7861,35.1362
	c2.3105,14.0494,4.0076,28.1847,6.3848,42.2301c2.7643,16.3317,3.7799,32.9523,5.8525,49.4098
	c2.7795,22.0701,5.0426,44.233,10.9314,65.7969c4.8273,17.677,10.2593,35.124,19.1426,51.2701
	c2.1672,3.9391,4.2475,8.183,8.8442,9.9166c7.3186,2.7598,14.0479,6.4595,20.4757,10.9573
	c15.6328,10.939,32.546,19.5813,50.3812,26.3025c4.7735,1.7991,6.7658,4.9138,7.6143,9.519
	c4.2375,23.0018,10.4789,45.5344,16.0811,68.2167c0.5266,2.1316,1.9955,2.9789,4.0996,3.1477
	c4.1206,0.3304,8.3079,0.3976,12.3354,1.2206c15.8984,3.2473,32.828,3.8169,44.5388,17.8629
	c5.0206,6.0216,11.7885,10.733,14.1643,18.6532c2.8081,9.3613,5.2014,18.7656,5.8424,28.666
	c1.9924,30.7743,6.9911,61.3512,6.498,92.2707c-0.0852,5.3395,0.0856,10.6756-0.0173,16.0098
	c-0.243,12.593-0.9521,25.1859-0.8503,37.7739c0.0776,9.5724,1.4519,19.1328,1.5758,28.7073
	c0.0602,4.6474,1.0577,9.3409,0.4489,13.8752c-1.9568,14.5685-4.1978,29.0789-1.9346,43.8214
	c0.1311,0.8532,0.0791,1.7596-0.0361,2.6215c-1.5928,11.897,1.5735,23.5135,2.0768,35.2857
	c0.0139,0.3267,0.2531,0.7222,0.5088,0.9478c2.0074,1.7713,1.826,4.2411,1.056,6.1459c-2.4683,6.1057-2.0127,11.8791,0.3649,17.9044
	c2.5668,6.5042,6.577,12.402,7.8802,19.456c0.499,2.7011,2.4829,4.5042,5.4011,5.1481c2.8134,0.6208,4.6172,2.5598,3.8989,5.4392
	c-3.5922,14.3971-4.9324,29.4401-11.1165,43.0836c-4.2054,9.2786-3.8954,19.6468-8.0229,28.8347
	c-2.0964,4.6668-3.7354,9.4552-5.318,14.3362c-5.192,16.0125-12.448,31.2313-15.3575,48.1373
	c-2.7319,15.874-8.8328,31.099-10.8475,47.22c-0.9156,7.3271-0.1449,15.3475-2.9196,21.8708
	c-8.9154,20.9606-12.4326,43.379-18.4816,65.0546c-5.145,18.4362-4.7515,38.1874-9.0736,57.0249
	c-0.9807,4.2742,1.9404,6.6646,5.2886,8.616c6.2148,3.6222,12.895,6.1779,19.5945,8.6882c2.3936,0.8967,3.7957,2.2637,3.5167,5.032
	c-1.4635,14.5276-4.2399,28.7916-9.1136,42.5634c-10.4297,29.4714-14.405,60.1978-17.2016,91.0448
	c-2.205,24.3229-2.4878,48.8165-4.518,73.1597c-2.6551,31.8364-4.7811,63.7327-9.2924,95.4034
	c-1.6053,11.2692-5.6449,20.4688-16.5926,25.3243c-10.7767,4.78-21.5056,9.6923-32.4436,14.0774
	c-13.9517,5.5938-28.7215,9.0135-42.3749,15.4017c-5.8104,2.7185-12.5703,4.2651-17.8817,7.943
	c-4.9302,3.4138-9.2374,9.4128-10.9389,15.1267c-1.8663,6.2676-0.5497,13.7767,4.4516,17.99
	c4.9239,4.1479,12.0382,4.2942,18.4254,3.4849c3.9483-0.5002,7.8773-1.2926,11.8623-1.4506c3.9-0.1547,7.6666,0.627,11.5764,0.4745
	c5.1547-0.201,10.3104-0.3768,15.4668-0.5272c10.3129-0.3009,20.6287-0.5005,30.9454-0.5988
	c10.236-0.0975,20.473-0.0955,30.7089,0.0065c13.6426,0.1357,27.4146,1.9902,40.9116-0.9117
	c2.1973-0.4724,4.424-1.0953,6.2367-2.424c3.5313-2.5883,4.7737-7.277,5.1677-11.6376c1.2074-13.3589,2.4882-27.2119,5.0406-40.4164
	c3.2648-16.8884,6.0029-33.8226,8.5237-50.8221c3.3177-22.3735,8.9943-44.2638,14.6705-66.115
	c6.0898-23.443,16.52-45.4167,24.0479-68.3905c4.932-15.0513,7.5789-30.5504,9.4231-46.204
	c1.6047-13.6229,2.2192-27.396,4.4834-40.8995c2.8464-16.9791,12.9429-31.1185,20.1455-46.3789
	c1.0699-2.267,2.4819-2.1581,4.5071-0.6738c5.511,4.0398,6.449,3.4922,9.0723-2.5624c4.2562-9.822,7.4247-20.2952,15.7488-27.8657
	c2.0233-1.8401,3.8337-3.9554,5.5206-6.1169c6.0809-7.7913,9.1732-17.2908,14.4362-25.548
	c7.9481-12.4703,16.6224-24.5238,23.8494-37.3936c5.8728-10.4584,11.8435-20.9688,16.3541-32.1707
	c0.5922-1.4702,1.4801-3.451,3.0839-3.3883c1.2527,0.0491,0.8521,2.1578,0.7771,3.2817
	c-1.0188,15.2612-0.3914,30.4009,2.7631,45.415c3.0961,14.736,6.1671,29.4799,8.9786,44.2719
	c1.3611,7.1639,3.354,14.1396,5.1005,21.1943c2.1888,8.8409,0.4352,17.442-3.6669,25.4987
	c-1.457,2.8616-1.7155,4.5288,1.5989,6.6578c8.6272,5.5421,17.5746,11.011,20.8359,21.8092
	c0.4807,1.5916,2.0547,2.2207,3.5619,2.4426c8.8971,1.3109,17.8136,2.4916,26.7089,3.8156
	c7.3008,1.0868,13.8584,1.1489,17.4651,10.8063c6.9271,18.5486,11.8718,37.1959,13.1838,56.9457
	c1.2788,19.255,2.0576,38.6917,6.9124,57.4282c9.4141,36.3322,16.6788,73.0925,23.1884,110.0103
	c1.7496,9.9272,2.9032,19.9624,3.3771,30.0325c0.2429,5.1632,0.3108,10.3348,0.1851,15.5023
	c-0.1194,4.9164-0.7603,9.7896-0.8445,14.7089c-0.0868,5.0555,0.1962,10.1176,0.8472,15.132
	c0.2439,1.8777,0.334,3.8103,0.6719,5.6682c0.1366,1.1667,0.2815,2.3325,0.4379,3.4968c0.151,1.124,0.5059,2.3573,0.5059,3.4875
	c0.0001,6.1396,1.5438,12.658,4.2577,18.1576c1.3203,2.6757,3.0269,5.353,5.4619,7.1499c3.4281,2.5297,6.6355,2.2643,10.7587,2.2625
	c20.6935-0.0095,41.387-0.019,62.0804-0.0284c12.5381-0.0057,25.0759-0.0115,37.614-0.0173
	c6.3716-0.0028,12.7435-0.0229,19.1152-0.0087c5.2179,0.0116,10.6436,1.2478,15.8687,1.9111
	c6.3872,0.8093,13.5015,0.6631,18.4255-3.485c5.0012-4.2131,6.3177-11.7224,4.4515-17.9899
	c-1.7014-5.7139-6.0087-11.7129-10.939-15.1267c-5.3114-3.6779-12.0712-5.2245-17.8817-7.9431
	c-13.6534-6.3881-28.4233-9.808-42.375-15.4015c-6.9528-2.7876-13.7244-5.9701-20.7414-8.5474
	c-6.926-2.5438-13.8385-5.7664-18.9998-11.1899c-5.994-6.2987-8.9972-14.97-9.9504-23.6125
	c-1.5567-14.1141,0.5266-29.418,1.8781-43.5082c1.4833-15.4644,2.3606-30.9874,3.4608-46.4877
	c0.7343-10.3442,0.9764-20.7003,1.1257-31.0741c0.1158-8.0569-0.2146-16.0752-0.5605-24.0996
	c-0.4442-10.302-0.6456-20.6588-1.9475-30.865c-0.9738-7.6339-1.6871-15.3173-2.8867-22.9469
	c-1.4443-9.1879-1.9457-18.5112-4.1368-27.6293c-0.9238-3.8442-2.1649-8.4003,0.0649-11.7759
	c1.3733-2.0792,5.1132,0.1548,7.8033,0.2567c8.83,0.3347,13.2416-5.6331,10.8009-12.09
	c-3.0602-8.0958-4.1404-16.5293,0.0352-24.7798c2.3396-4.6229,3.7373-9.553,4.8556-14.5909
	c2.9779-13.4149,5.6783-26.8712-1.0963-39.9366c-4.4071-8.4989-3.4933-16.5265-0.5161-25.3969
	c4.5476-13.5507,2.6047-27.5155-0.1267-41.2986c-0.7827-3.951-1.2781-8.0515,0.651-11.8656
	c6.9562-13.755,4.4475-28.17,2.7887-42.4369c-0.6758-5.8131-2.9421-11.4346-1.105-17.4213
	c3.3589-10.9445,1.5437-22.005,0.0475-32.9102c-1.0109-7.3679-1.9801-15.0004-6.4777-21.4083
	c-1.6956-2.4159-1.8125-4.9297-1.5999-7.8309c0.9883-13.4763,1.6229-26.9851,0.9668-40.4963
	c-0.5721-11.7774-2.1483-23.4431-0.2102-35.3437c1.1754-7.2172,1.2236-14.8311-0.3992-22.163
	c-1.8643-8.4213-2.2217-16.9808-2.5989-25.5266c-0.6323-14.3242-0.3936-28.8068-10.4111-40.7264
	c-0.8425-1.0024-2.6377-2.3907-1.3777-3.5519c1.1672-1.0753,3.1293-0.3294,4.3965,0.9931c0.7815,0.8152,1.5978,1.6014,2.3262,2.4617
	c6.4568,7.6252,14.677,10.7001,24.5249,9.4249c8.071-1.0452,12.6305-5.602,10.4609-10.8958
	c-1.3563-3.3091-4.0896-6.0319-6.0061-9.1402c-1.72-2.79-6.8246-5.9252-3.425-8.7253c3.9067-3.2177,2.752-6.2226,2.522-9.5641
	c-0.2219-3.2267-0.0229-6.4802-2.1765-9.4908c-2.3672-3.3097,1.8635-6.4152,1.2029-9.7813
	c-0.9187-4.6807-0.0111-9.5717-3.2867-14.0019c-3.795-5.1327,2.9108-11.0079-0.0468-16.597
	c-0.0476-0.0898,0.2295-0.4844,0.4181-0.5472c4.2957-1.4296,3.1942-5.1519,3.0344-8.0422
	c-0.7445-13.4554-2.0239-26.8843-2.608-40.3444c-0.2769-6.3834-0.5125-12.6829-1.5408-19.0351
	c-1.7061-10.5391-3.1121-21.1772-3.7334-31.8268c-0.5862-10.0482-0.4758-20.1987,0.2321-30.2404
	c0.5272-7.4807-1.8129-14.664-0.7518-22.2099c2.4736-17.5884-1.1875-35.0925-1.7029-52.6538
	c-0.0994-3.3812,0.2764-6.1284,2.2184-9.1385c2.597-4.0253,4.53-8.4513,6.0172-13.2189
	c2.7802-8.9124,4.7117-18.7556,15.8806-22.2086c6.1538-1.9025,12.1442-7.8212,17.7581-7.2777
	c12.8289,1.2419,26.3191,0.4839,38.334,7.059c2.0803,1.1385,5.9637,3.1402,7.3478-0.14
	c3.3832-8.0179,9.9534-13.5283,14.8832-20.2715c7.5718-10.3577,13.5927-21.3641,18.0427-33.304
	c1.1123-2.9839,2.6765-4.7007,6.1436-5.0841c27.5847-3.0491,55.2467-5.7814,81.6866-15.0328
	c8.489-2.9707,17.2487-5.4618,25.2555-9.4385c9.071-4.5051,11.8689-14.1394,14.3567-23.0039
	c6.7917-24.2007,12.5957-48.6416,14.6079-73.8232c1.4514-18.1621,1.7754-36.3582,2.1443-54.5588
	c0.2708-13.3494,0.1892-26.7319,1.1541-40.0348c1.5659-21.5951,3.3875-43.1339,0.8267-64.7784
	C895.8815,168.6341,896.254,164.9549,896.5685,161.3631z"/>
</svg>
