<?xml version="1.0" encoding="utf-8"?>

<!DOCTYPE svg PUBLIC "-//W3C//DTD SVG 1.1//EN" "http://www.w3.org/Graphics/SVG/1.1/DTD/svg11.dtd">
<svg version="1.1" id="Layer_1" xmlns="http://www.w3.org/2000/svg" xmlns:xlink="http://www.w3.org/1999/xlink" x="0px" y="0px"
	 viewBox="0 0 932 1759" enable-background="new 0 0 932 1759" xml:space="preserve">
<path d="M331.9,60.86c9.74-4.18,20.4-6.71,31.04-5.93c8,0.75,16.19-0.16,24,2.12c6.08,1.32,11.24,4.97,17.05,7
	c5.52,2.17,11.52,3.19,16.6,6.39c13.17,7.84,20.87,21.99,33.46,30.55c7.49,5.82,15.49,11.01,22.3,17.66
	c7.44,7.25,14.96,14.44,21.98,22.11c4.24,4.35,9.19,8.04,12.94,12.86c2.84,4.33,4.65,9.26,6.15,14.19
	c1.65,7.03,0.64,14.85,4.36,21.31c2.65,3.85,1.7599,9.16-0.83,12.82c2.74,1.61,5.46,3.26,8.15,4.96c-0.91,1.4-1.8199,2.8-2.71,4.21
	c2.17,6.18,0.52,12.81-0.35,19.08c2.47,3.11,5.35,5.87,7.77,9.01c2,3.19,3.54,6.64,5.06,10.08c1.04,2.57,3.37,4.31,4.56,6.79
	c0.05,2.75-2.23,5.05-2.15,7.83c0.05,3.04,0.46,6.07,0.67,9.11c-0.98,0.5-1.96,1.01-2.93,1.51c0.03,0.61,0.08,1.83,0.1,2.44
	c-2.53,1.54-5.05,3.08-7.53,4.71c0.37,2.19,0.46,4.47,1.21,6.58c1.25,2.3,3.47,3.81,5.12,5.79c3.49,3.9,5.37,8.84,7.77,13.41
	c1.1,2.42,4,2.78,6.31,3.33c11.25,1.99,22.32,6.59,30.53,14.73c12.66,11.29,19.92,26.97,28.62,41.21
	c6.13,10.79,13.98,20.55,23.03,29.03c14.22,12.78,25.86,28.23,35.27,44.84c5.09,8.31,10.57,16.5,17.44,23.46
	c2.61,2.74,4.77,5.91,7.76,8.29c5.37,6.69,10.15,13.83,15.21,20.75c5,6.27,10.77,11.94,17.17,16.78
	c3.6299,2.61,8.12,3.71,11.8199,6.22c4.83,3.65,6.9301,9.65,11.35,13.68c10.5,10.15,17.86,22.98,24.24,35.98
	c8.46,15.67,15.57,32.02,23.82,47.79c4.57,7.75,9.51,15.28,13.75,23.22c7.11,13.07,15.42,25.44,22.88,38.31
	c2.82,4.16,4.86,9.01,8.64,12.42c4.15,2.2,8.55,3.97,12.45,6.64c3.68,3.31,5.83,7.98,9.49,11.33c5.22,4.47,11.22,8.11,15.64,13.47
	c6.16,7.01,10.61,15.32,16.35,22.67c2.14,2.84,4.92,5.66,4.91,9.4901c0.51,3.28-0.8,6.41-1.89,9.44
	c-1.92,4.9399-1.53,10.37-2.46,15.52c-2.15,9.82-7.8,19.13-16.62,24.28c-10.6801,7.42-25.2,8.57-37.05,3.41
	c-5.4-2.28-8.88-7.18-13.03-11.07c-3.58-3.48-7.87-6.76-9.28-11.78c-1.72-5.95,0.43-12,1.12-17.92c0.53-3.66-0.75-7.27-0.56-10.93
	c0.2-5.1-0.92-10.12-1.83-15.1c-0.62-3.96-3.84-6.66-5.78-9.96c-1.84-2.86-1.72-6.52-3.58-9.34c-4.48-6.73-10.27-12.42-15.37-18.65
	c-10.32-12.03-20.48-24.2-31.09-35.98c-10.05-10.61-19.82-21.47-29.99-31.96c-9.83-10.13-20.68-19.23-30.27-29.61
	c-2.76-3.19-6.94-4.45-10.17-7.02c-4.18-3.02-6.42-7.86-8.59-12.37c-2.9-6.75-7.55-12.51-10.84-19.04c-2.8-5-5.07-10.26-7.66-15.37
	c-5.04-9.84-12.26-18.3-19.24-26.79c-11.85-14.45-25.1-27.63-37.28-41.78c-5.33-6.01-11.81-10.88-17.09-16.93
	c-6.05-7.41-10.58-15.92-16.54-23.39c-2.4-3.1-6.07-5.85-10.17-5.41c-5.18,2.88-8.29,8.19-12.37,12.32
	c-3.81,3.29-4.22,8.78-7.63,12.39c-0.09,2.47-0.29,5,0.47,7.4c2.57,7.92,2.7,17.17-1.75,24.47c-1.69,3.22-3.97,6.32-4.36,10.05
	c-0.87,7.65-2.0699,15.28-3.65,22.82c-2.33,10.34-3.21,20.91-4.72,31.38c-1.68,11.21-1.6,22.59-3.03,33.83
	c-1.11,9.83,0.61,19.68,2.71,29.26c2.18,9.57,3.78,19.32,7.08,28.6c4.05,12.1,10.63,23.09,15.91,34.65
	c2.01,4.92,6.34,8.41,8.42,13.3c1.89,3.76,2.11,8.02,2.51,12.13c0.46,5.07,3.77,9.22,5.14,14.02c0.72,3.32,0.45,6.78,1.11,10.12
	c0.96,5.49,3.39,10.56,4.99,15.86c1.28,7.37,0.38,15.16,3.07,22.27c3.23,8.25,5.24,16.94,6.41,25.71
	c1.81,13.28,0.5,26.71,1.19,40.05c0.61,7.3701-2.85,14.1201-6.24,20.4c-1.88,3.53-4.96,6.56-5.47,10.7
	c-2.19,12.56-6.85,24.48-11.42,36.32c-9.97,24.71-17.17,50.64-29.9,74.18c-9.84,19.34-23.55,36.36-33.34,55.72
	c-9.34,18.48-18,37.2999-27.29,55.7999c-2.74,5.4301-5.34,10.9701-8.89,15.9401c-3.72,4.65-5.44,10.5599-9.64,14.89
	c4.45,7.09,7.87,14.89,9.45,23.14c2.86,1.36,5.95,2.0099,9.08,2.46c4.18,0.51,7.12,3.8099,10.25,6.2999
	c4.3,3.8201,3.17,10.15,4.23,15.25c1.64,7.39-0.89,14.7401-2.41,21.91c0.43,13.03,0.4,26.09,1.64,39.0801
	c1.13,11.87,1.15,24.4399-4.27,35.37c-5.69,11.8999-16.2,22.45-29.51,24.99c-9.92,2.0199-20.55-2.9501-25.61-11.66
	c-7.93-13.4401-11.17-29.74-8.49-45.16c-11.05-2.85-16.85-13.59-21.39-23.11c-9.69-1.53-18.41-6.13-26.56-11.36
	c-3.55,24.1899,0.28,48.6,1.55,72.8199c1.75,26.28,2.86,52.8301-1.15,78.9701c-3.38,21.09-8.66,41.84-11.2,63.08
	c-3.5,27.5601-5.56,55.29-7.28,83.02c-0.44,5.37,1.55,10.58,1.35,15.96c0.08,3.89-1.01,7.87,0.2,11.7001
	c1.17,4.3999,1.27,9.0199,0.69,13.5399c3.8,2.7101,7.9,5.4501,10.09,9.74c2.16,4.2001,3.55,8.79,6.21,12.74
	c2.8,4.8401,6.17,9.5901,7.4,15.13c1.44,6.0601-3.65,12.13-9.62,12.8101c0.25,11.78,0.54,23.58-0.46,35.35
	c-0.23,10.0601-1.05,20.1801-3.91,29.88c-2.96,10-6.25,20.0601-11.88,28.92c-5.74,8.72-13.32,16.2-22,21.97
	c-4.68,2.91-10.39,5.08-15.95,3.72c-5.4-1.2-9.6-5.3199-12.4-9.9c-4.95-8.26-6.7-18.09-6.23-27.61c0.52-9.5,3.04-18.73,5.79-27.78
	c2.78-8.83,4.42-18.0399,4.92-27.2699c-1.85-10.03-8.98-17.9301-12.51-27.3301c-3.17-7.02-4.01-15.02-2.67-22.58
	c0.3-2.3201,0.94-4.6901,0.15-6.95c-4.68-16.9801-3.27-34.8601-0.62-52.05c-1.04-10.02-3.5-19.9301-3.69-30.05
	c-0.35-13-0.41-26.0399,0.64-39c0.76-4.95-0.34-9.89-0.88-14.7799c-1.79-13.62-3.59-27.26-6.77-40.62
	c-3.87-17.3601-9.51-34.5801-9.5-52.53c-0.16-21.86,7.1-42.72,11.98-63.77c3.66-15.14,5.89-30.63,6.27-46.21
	c-0.09-5.88-2.68-11.3-3.95-16.9501c-0.92-4.6899,1-9.25,1.2-13.87c-2.25-11.71-5.43-23.22-8.09-34.83
	c-1.86-4.34-5.63-7.7101-6.59-12.48c-3.9-10.7101-0.24-22.03-1.22-33.01c-1.27-7.98-3.26-15.87-3.86-23.9501
	c-0.81-12.6899-2.82-25.2799-3.38-37.98c-1.16-11.63-2.02-23.27-2.32-34.95c-1.1-18.69-2.5-37.36-3.2-56.07
	c-0.08-16.94-0.57-33.89,0.11-50.83c0.54-10.38,1.03-20.76,1.92-31.12c0.3-2.8-0.08-5.6-0.72-8.31c-1.18-4.82-1.22-9.83-2.64-14.58
	c-0.57-2.69-1.89-5.46-1.02-8.21c1.64-6.39,4.65-12.36,5.94-18.84c1.26-6.01,2.06-12.1,3.44-18.08c2.67-12.11,7.11-23.73,12.1-35.05
	c2.77-5.95,3.07-12.58,4.07-18.96c1.33-3.82,3.31-7.39,4.56-11.25c1.48-3.42,1.24-7.21,2.17-10.76c1.01-4.12,3.41-7.73,4.47-11.8199
	c1.25-4.82,1.99-9.89,4.58-14.23c1.89-3.69,4.52-6.93,6.54-10.53c4.76-9.69,9.85-19.25,13.63-29.38c2.33-7.47,4.35-15.06,5.26-22.85
	c1.32-10.35,3.11-20.75,2.44-31.22c-0.4-6.52-2.65-12.7-3.96-19.05c-3.07-15.96-8.19-31.45-14.13-46.55
	c-3.98-8.52-7.78-17.13-11.13-25.9301c-1.81-5.39-7.5-8.05-9.99-13c-1.25-3.11-2.27-6.32-3.08-9.57c-0.97-4.32,1.33-8.54,0.65-12.86
	c-0.8-5.73-1.22-11.53-0.47-17.29c-2.88-3.92-6.5-7.43-10.96-9.47c-4.54,1.21-7.27,5.63-8.6,9.86c-1.71,5.44-3.45,10.89-6.09,15.96
	c-4.56,10.54-12.5,19.04-18.12,28.97c-9.16,15.69-20,30.37-28.28,46.56c-4.98,9.71-10.21,19.54-12.28,30.37
	c-1.72,8.56-4.08,16.97-7.01,25.19c-2.22,5.92-2.18,12.5-5.14,18.17c-1.67,3.72-4.94,6.29-7.82,9.04c-2.66,2.45-4.32,5.7-6.3,8.67
	c-5.69,8.9-12.35,17.14-18.12,25.99c-8.38,12.75-15.99,25.97-24.03,38.93c-8.51,13.95-15.38,28.86-24.41,42.5
	c-2.78,3.79-5.65,7.62-7.06,12.18c-1.9,3.77,1.5,7.66,0.29,11.53c-0.54,3.93-3.22,7.74-1.71,11.76c1.85,6.21,2.51,12.65,3.39,19.04
	c2.99,6.94,5.72,14,8.12,21.18c1.37,4.36-0.41,9.02-2.73,12.74c-3.34,5.16-6.6,10.62-11.68,14.28c-7.01,5.62-16.41,6.84-25.11,6.41
	c-6.22-0.96-12.88-2.47-17.51-7.05c-2.5-2.5-5.02-5.01-7.25-7.76c-3.68-4.51-5.28-10.34-9.12-14.74c-3.01-3.88-6.73-7.86-7.16-12.98
	c2.08-11.48,6.19-22.47,9.22-33.71c1.49-5.64,5.04-10.34,7.87-15.33c2.07-4.42,3.68-9.04,5.39-13.6c2.48-5.58,9.62-7.25,11.69-13.06
	c4.34-10.3,7.7-20.98,11.52-31.47c4.11-10.89,7.11-22.16,11.17-33.06c2.09-6.68,5.07-13.07,6.49-19.94
	c2.23-9.8,4.39-19.62,6.84-29.36c3.92-15.93,7.73-32.44,17.23-46.13c3.62-4.73,4.71-10.85,8.44-15.5c2.79-3.55,7.01-5.63,9.78-9.2
	c3.8-4.99,7.65-9.99,10.45-15.6299c3.29-5.9301,5.45-12.38,8.32-18.5c4.8-10.88,11.87-20.61,16.35-31.63
	c4.57-10.27,7.24-21.24,11.75-31.52c3.2-7.22,6.64-14.37,10.99-20.98c5.21-8.43,11.61-16.19,15.67-25.29
	c6.7-14.55,9.79-30.39,15.59-45.26c3.18-8.07,7.77-16.26,15.7-20.47c3.75-2.34,8.28-2.31,12.52-2.78
	c-0.73-4.97-4.55-10.54-0.22-14.96c-3.09-3.05-7.44-4.91-9.37-8.99c-1.69-2.62-2.49-5.65-2.59-8.74c0.07-3.69-2.83-6.41-3.61-9.87
	c-1.06-4.59-1.65-9.33-1.03-14.03c0.14-6.11,3.35-11.55,4.16-17.54c1.01-4.92,1.01-9.95,1.32-14.94c1.59-5.84,2-12.06,4.68-17.56
	c0.04-2.84,0.24-5.8,2.19-8.06c-0.53-1.94-0.8-3.93-1.37-5.84c-0.3-4.2-2.9-7.73-3.63-11.84c-2.21-5.79-1-12.05-0.2-17.98
	c1.25-7.32,6.32-13.19,7.6-20.48c1.93-6.47,0.2-13.21-0.1-19.78c-0.52-5.11,1.36-9.99,2.12-14.97c1.11-5.63,0.6-11.61,3.1-16.93
	c2.29-6.2,6.54-11.32,10.78-16.29c3.08-3.43,4.75-7.8,7.46-11.5c6.04-8.41,14.64-14.61,23.66-19.5c6-3.21,11.08-7.95,17.45-10.49
	C320.61,63.72,326.44,62.83,331.9,60.86 M412.32,885.23c-3.64,7.87-4.61,16.7-4.92,25.28c0.4-0.35,1.2-1.06,1.59-1.41
	c6.06-10.05,10.17-21.06,14.28-32C418.91,878.53,414.31,880.83,412.32,885.23z"/>
</svg>
